<?xml version="1.0"?>
<svg xmlns="http://www.w3.org/2000/svg" xmlnsXlink="http://www.w3.org/1999/xlink" xmlnssvgjs="http://svgjs.com/svgjs" version="1.1" width="512" height="512" x="0" y="0" viewBox="0 0 512 512" style="enable-background:new 0 0 512 512" xmlSpace="preserve"><g><g xmlns="http://www.w3.org/2000/svg" id="Out_line" data-name="Out line"><path d="M412.80029,193.17334a191.54843,191.54843,0,0,0-90.02783-69.23389q-.11207-.04174-.22558-.08007A191.17873,191.17873,0,0,0,256,112c-2.77832,0-5.58545.06006-8.34277.17822l.68554,15.98535C250.87305,128.05518,253.44922,128,256,128a175.716,175.716,0,0,1,48.12378,6.67389A7.97366,7.97366,0,0,0,304,136v40a7.99977,7.99977,0,0,0,8,8h4.90039l-4.48975,13.47021a7.99912,7.99912,0,0,0,1.34229,7.52735L344,242.80615V320a7.99924,7.99924,0,0,0,4.42236,7.15527l32,16a8.00053,8.00053,0,0,0,7.15528,0l9.231-4.61523,20.50391,35.88074A175.95717,175.95717,0,0,1,256,480a178.4567,178.4567,0,0,1-24-1.629V464h32a7.99977,7.99977,0,0,0,8-8V436l28.7998-21.6001a7.9959,7.9959,0,0,0,2.35547-2.82226l24-48a8,8,0,0,0-4.18408-11.00537l-40-16a7.99657,7.99657,0,0,0-5.501-.16163L261.666,341.67871l-5.90479-23.61914a7.99975,7.99975,0,0,0-3.64551-4.91943l-40-24a7.99926,7.99926,0,0,0-9.77246,1.20312l-18.937,18.93653L152,284.15479V264h40a7.99877,7.99877,0,0,0,5.65674-2.34326l64-64a7.99915,7.99915,0,0,0,0-11.31348l-24-24-11.31348,11.31348L244.686,192l-56,56H144a7.99977,7.99977,0,0,0-8,8v32a7.99951,7.99951,0,0,0,3.00244,6.24707l40,32a7.999,7.999,0,0,0,10.6543-.59033l19.58349-19.583,31.80225,19.08154,7.19629,28.78516a8.00035,8.00035,0,0,0,10.291,5.64893l21.21972-7.07325,29.207,11.68262L289.689,402.73291,259.2002,425.6001A7.99927,7.99927,0,0,0,256,432v16H224a7.99977,7.99977,0,0,0-8,8v19.426a175.50564,175.50564,0,0,1-24-7.42261V424a7.99948,7.99948,0,0,0-1.6001-4.7998L168,389.3335V360a7.99877,7.99877,0,0,0-2.34326-5.65674L112,300.686V200.29a7.99993,7.99993,0,0,0-14.604-4.51514,191.97164,191.97164,0,0,0,125.22363,297.335A193.94111,193.94111,0,0,0,256,496,192.048,192.048,0,0,0,433.63916,376.97217q.04834-.11646.09229-.23438a192.247,192.247,0,0,0-20.93116-183.56445ZM176,460.81982a176.1944,176.1944,0,0,1-80-230.25V304a7.99877,7.99877,0,0,0,2.34326,5.65674L152,363.314V392a7.99948,7.99948,0,0,0,1.6001,4.7998L176,426.6665ZM396.42236,320.84473,384,327.05566l-24-12V240a8.00033,8.00033,0,0,0-1.75293-4.99756l-29.28125-36.60156,6.62354-19.87109A8,8,0,0,0,328,168h-8V140.64258l.62915-.3595a176.21264,176.21264,0,0,1,103.919,214.55115l-17.6023-30.80347A8.00025,8.00025,0,0,0,396.42236,320.84473Z" fill="#9fa2b4" data-original="#000000" style=""/><path d="M160,232a7.99951,7.99951,0,0,0,6.24707-3.00244C168.93164,225.6416,232,146.1377,232,88A72,72,0,0,0,88,88c0,58.1377,63.06836,137.6416,65.75293,140.99756A7.99951,7.99951,0,0,0,160,232Zm0-200a56.06353,56.06353,0,0,1,56,56c0,42.42969-40.21387,101.28809-56,122.75586C144.21387,189.28809,104,130.42969,104,88A56.06353,56.06353,0,0,1,160,32Z" fill="#9fa2b4" data-original="#000000" style=""/><path d="M200,88a40,40,0,1,0-40,40A40.04521,40.04521,0,0,0,200,88Zm-64,0a24,24,0,1,1,24,24A24.0275,24.0275,0,0,1,136,88Z" fill="#9fa2b4" data-original="#000000" style=""/></g></g></svg>
